<svg width="32" height="32" fill="none" xmlns="http://www.w3.org/2000/svg"><path fill="#005F7F" d="M0 0h32v32H0z"/><g clip-path="url(#clip0_19882_913)" fill="#fff"><path d="M2.092 18.63h4.324c.747 0 1.45-.316 1.925-.866l3.383-3.93a.272.272 0 00-.208-.453h-1.437a.492.492 0 00-.38.172L6.43 17.372c-.567.653-1.206.756-1.853.756l-2.176.007a.302.302 0 00-.209.104l-.186.261c-.022.055.021.13.086.13zm7.858-.377l1.76-2.085a2.156 2.156 0 011.659-.757h2.528c.058 0 .1.007.13.055l.172.227c.057.075 0 .179-.094.179h-1.644c-.503 0-.984.22-1.3.591l-1.66 1.961a.57.57 0 01-.43.193h-.949c-.2.014-.301-.213-.172-.364z"/><path d="M12.988 13.848h2.277c.589 0 1.15.255 1.523.689l3.332 3.88c.123.138.302.22.489.22h1.372c.237 0 .366-.268.215-.44l-3.476-4.046c-.431-.502-1.128-.798-2.133-.798h-3.29a.234.234 0 00-.201.103l-.187.255a.09.09 0 00.079.137zm14.079-.398l.194.254c.05.062 0 .151-.08.151h-4.036c-.244-.007-.36.241-.173.461l2.579 3.007c.474.578 1.034.805 1.918.805h2.133a.25.25 0 01.201.104l.18.254c.043.055 0 .138-.072.138l-4.367.007c-.733-.007-1.315-.275-1.89-.895L20.3 13.835c-.158-.186-.043-.468.201-.468h6.4c.058-.007.122.027.166.082z"/></g><defs><clipPath id="clip0_19882_913"><path fill="#fff" transform="translate(2 13)" d="M0 0h28v6H0z"/></clipPath></defs></svg>