<svg width="76" height="18" fill="none" xmlns="http://www.w3.org/2000/svg"><path d="M.25 16.454h11.736a6.759 6.759 0 005.225-2.457l9.183-11.132c.429-.507.097-1.287-.566-1.287H21.93c-.41 0-.78.176-1.033.488l-8.871 10.82c-1.54 1.852-3.275 2.145-5.03 2.145l-5.907.02a.808.808 0 00-.566.292l-.507.74c-.058.157.059.371.234.371zm21.328-1.072l4.777-5.908a5.751 5.751 0 014.503-2.144h6.863c.156 0 .273.02.35.156l.469.643a.318.318 0 01-.254.507h-4.464a4.574 4.574 0 00-3.53 1.677l-4.503 5.556a1.519 1.519 0 01-1.17.546h-2.573c-.546.039-.819-.604-.468-1.033z" fill="#000"/><path d="M29.825 2.904h6.18c1.599 0 3.12.721 4.133 1.95l9.046 10.995c.332.39.82.624 1.326.624h3.724c.643 0 .994-.76.585-1.248L45.383 3.762c-1.17-1.424-3.061-2.262-5.79-2.262h-8.93a.628.628 0 00-.546.292l-.507.722c-.097.175.02.39.215.39zm38.213-1.131l.526.722c.137.175 0 .429-.214.429H57.393c-.663-.02-.975.682-.468 1.306l7 8.52c1.286 1.637 2.807 2.28 5.205 2.28h5.79c.215 0 .429.118.546.293l.487.722c.117.156 0 .39-.195.39l-11.853.02c-1.989-.02-3.568-.78-5.128-2.535L49.672 2.864c-.429-.526-.117-1.326.546-1.326H67.59c.156-.02.332.078.449.234z" fill="#000"/></svg>